<?xml version="1.0" encoding="UTF-8"?>
<svg id="Calque_1" xmlns="http://www.w3.org/2000/svg" xmlns:xlink="http://www.w3.org/1999/xlink" version="1.1" viewBox="0 0 63.9 57">
  <!-- Generator: Adobe Illustrator 29.3.1, SVG Export Plug-In . SVG Version: 2.1.0 Build 151)  -->
  <defs>
    <filter id="drop-shadow-1" x="-8.1" y="-8.2" width="88.3" height="81.4" filterUnits="userSpaceOnUse">
      <feOffset dx="4" dy="4"/>
      <feGaussianBlur result="blur" stdDeviation="4"/>
      <feFlood flood-color="#001a9a" flood-opacity=".2"/>
      <feComposite in2="blur" operator="in"/>
      <feComposite in="SourceGraphic"/>
    </filter>
    <linearGradient id="Degradado_sin_nombre_5" data-name="Degradado sin nombre 5" x1="32" y1="16.2" x2="32" y2="57.2" gradientUnits="userSpaceOnUse">
      <stop offset="0" stop-color="#ff7e7d"/>
      <stop offset=".2" stop-color="#ff7e7d"/>
      <stop offset=".7" stop-color="#ff2828"/>
      <stop offset="1" stop-color="#a40909"/>
    </linearGradient>
    <linearGradient id="Degradado_sin_nombre_51" data-name="Degradado sin nombre 5" x1="17.9" y1="-4.6" x2="29.2" y2="20.9" xlink:href="#Degradado_sin_nombre_5"/>
    <linearGradient id="Degradado_sin_nombre_52" data-name="Degradado sin nombre 5" x1="20.8" y1="16.9" x2="62.2" y2="39.7" xlink:href="#Degradado_sin_nombre_5"/>
    <linearGradient id="Degradado_sin_nombre_53" data-name="Degradado sin nombre 5" x1="30.3" y1="1.3" x2="46.2" y2="18.1" xlink:href="#Degradado_sin_nombre_5"/>
    <linearGradient id="Degradado_sin_nombre_54" data-name="Degradado sin nombre 5" x1="55.8" y1="-15.6" x2="55.8" y2="31.5" xlink:href="#Degradado_sin_nombre_5"/>
    <linearGradient id="Degradado_sin_nombre_55" data-name="Degradado sin nombre 5" x1="8.1" y1="-15.6" x2="8.1" y2="31.5" xlink:href="#Degradado_sin_nombre_5"/>
    <linearGradient id="Degradado_sin_nombre_56" data-name="Degradado sin nombre 5" x1="27.6" y1="-.2" x2="45.6" y2="67.5" xlink:href="#Degradado_sin_nombre_5"/>
    <linearGradient id="Degradado_sin_nombre_7" data-name="Degradado sin nombre 7" x1="21.7" y1="-13.3" x2="34.9" y2="24.7" gradientUnits="userSpaceOnUse">
      <stop offset="0" stop-color="#fff"/>
      <stop offset="1" stop-color="#fff" stop-opacity="0"/>
    </linearGradient>
  </defs>
  <g style="filter: url(#drop-shadow-1);">
    <path d="M63.9,16.3C63.9,7.3,56.7,0,47.7,0s-13.8,5.1-15.7,12C30.1,5.1,23.8,0,16.3,0S0,7.3,0,16.3s1.6,8.1,4.3,11h0l27.6,29.7,27.6-29.7h0c2.7-2.9,4.3-6.8,4.3-11Z" style="fill: url(#Degradado_sin_nombre_5);"/>
    <path d="M32,33.3V12C30.1,5.1,23.8,0,16.3,0v7.4l15.7,25.9Z" style="fill: url(#Degradado_sin_nombre_51);"/>
    <path d="M59.6,27.3c2.7-2.9,4.3-6.8,4.3-11C63.9,7.3,56.7,0,47.7,0s-13.8,5.1-15.7,12v45l27.6-29.7Z" style="fill: url(#Degradado_sin_nombre_52);"/>
    <path d="M47.7,0c-7.5,0-13.8,5.1-15.7,12v18.1l20.9-6.4,6.8,3.6c2.7-2.9,4.3-6.8,4.3-11C63.9,7.3,56.7,0,47.7,0Z" style="fill: url(#Degradado_sin_nombre_53);"/>
    <path d="M47.7,0v20.9l12,6.4c2.7-2.9,4.3-6.8,4.3-11C63.9,7.3,56.7,0,47.7,0Z" style="fill: url(#Degradado_sin_nombre_54);"/>
    <path d="M16.3,0v20.9l-12,6.4C1.6,24.4,0,20.5,0,16.3,0,7.3,7.3,0,16.3,0Z" style="fill: url(#Degradado_sin_nombre_55);"/>
    <path d="M32,46.1l22.2-23.9c1.5-1.6,2.3-3.8,2.3-6,0-4.9-4-8.9-8.9-8.9s-7.5,2.7-8.5,6.5c-.9,3.2-3.8,5.5-7.2,5.5s-6.3-2.2-7.2-5.5c-1-3.8-4.6-6.5-8.5-6.5s-8.9,4-8.9,8.9.8,4.4,2.4,6l22.2,23.8Z" style="fill: url(#Degradado_sin_nombre_56);"/>
    <path d="M47.7,9.4c-3.1,0-5.8,2.1-6.6,5-1.1,4.1-4.8,6.9-9.1,6.9s-8-2.9-9.1-6.9c-.8-3-3.5-5-6.6-5s-6.9,3.1-6.9,6.9.6,3.4,1.8,4.6l20.7,22.3,20.8-22.3c1.2-1.3,1.8-2.9,1.8-4.6,0-3.8-3.1-6.9-6.9-6.9Z" style="fill: url(#Degradado_sin_nombre_7);"/>
  </g>
  <metadata>
    <sfw xmlns="http://ns.adobe.com/SaveForWeb/1.0/">
      <slices/>
      <sliceSourceBounds x="8.64" y="-93.12" width="88.32" height="81.36" bottomLeftOrigin="true"/>
    </sfw>
  </metadata>
</svg>