<?xml version="1.0" encoding="UTF-8"?>
<svg id="Calque_1" xmlns="http://www.w3.org/2000/svg" xmlns:xlink="http://www.w3.org/1999/xlink" version="1.1" viewBox="0 0 62.5 62.5">
  <!-- Generator: Adobe Illustrator 29.3.1, SVG Export Plug-In . SVG Version: 2.1.0 Build 151)  -->
  <defs>
    <filter id="drop-shadow-1" x="-8.1" y="-8.2" width="86.9" height="86.9" filterUnits="userSpaceOnUse">
      <feOffset dx="4" dy="4"/>
      <feGaussianBlur result="blur" stdDeviation="4"/>
      <feFlood flood-color="#001a9a" flood-opacity=".2"/>
      <feComposite in2="blur" operator="in"/>
      <feComposite in="SourceGraphic"/>
    </filter>
    <linearGradient id="Degradado_sin_nombre_2" data-name="Degradado sin nombre 2" x1="31.3" y1="-10.4" x2="31.3" y2="96.3" gradientUnits="userSpaceOnUse">
      <stop offset="0" stop-color="#fff700"/>
      <stop offset="1" stop-color="#ff6900"/>
    </linearGradient>
    <linearGradient id="Degradado_sin_nombre_21" data-name="Degradado sin nombre 2" x1="31.3" y1="-27.2" x2="31.3" y2="50.3" xlink:href="#Degradado_sin_nombre_2"/>
    <linearGradient id="Degradado_sin_nombre_22" data-name="Degradado sin nombre 2" x1="35.6" y1="-7.2" x2="35.6" y2="102.1" xlink:href="#Degradado_sin_nombre_2"/>
    <linearGradient id="Degradado_sin_nombre_23" data-name="Degradado sin nombre 2" x1="40.9" y1="-7.2" x2="40.9" y2="102.1" xlink:href="#Degradado_sin_nombre_2"/>
    <linearGradient id="Degradado_sin_nombre_24" data-name="Degradado sin nombre 2" x1="21.6" y1="-7.2" x2="21.6" y2="102.1" xlink:href="#Degradado_sin_nombre_2"/>
    <linearGradient id="Degradado_sin_nombre_25" data-name="Degradado sin nombre 2" x1="49" y1="-7.2" x2="49" y2="102.1" xlink:href="#Degradado_sin_nombre_2"/>
    <linearGradient id="Degradado_sin_nombre_26" data-name="Degradado sin nombre 2" x1="27" y1="-7.2" x2="27" y2="102.1" xlink:href="#Degradado_sin_nombre_2"/>
    <linearGradient id="Degradado_sin_nombre_27" data-name="Degradado sin nombre 2" x1="17.5" y1="-7.2" x2="17.5" y2="102.1" xlink:href="#Degradado_sin_nombre_2"/>
    <linearGradient id="Degradado_sin_nombre_28" data-name="Degradado sin nombre 2" x1="17.5" y1="-7.2" x2="17.5" y2="102.1" xlink:href="#Degradado_sin_nombre_2"/>
    <linearGradient id="Degradado_sin_nombre_29" data-name="Degradado sin nombre 2" x1="45" y1="-7.2" x2="45" y2="102.1" xlink:href="#Degradado_sin_nombre_2"/>
    <linearGradient id="Degradado_sin_nombre_210" data-name="Degradado sin nombre 2" x1="45" y1="-7.2" x2="45" y2="102.1" xlink:href="#Degradado_sin_nombre_2"/>
    <linearGradient id="Degradado_sin_nombre_211" data-name="Degradado sin nombre 2" x1="47.8" y1="-7.2" x2="47.8" y2="102.1" xlink:href="#Degradado_sin_nombre_2"/>
    <linearGradient id="Degradado_sin_nombre_212" data-name="Degradado sin nombre 2" x1="35.6" y1="-7.2" x2="35.6" y2="102.1" xlink:href="#Degradado_sin_nombre_2"/>
    <linearGradient id="Degradado_sin_nombre_213" data-name="Degradado sin nombre 2" x1="40.9" y1="-7.2" x2="40.9" y2="102.1" xlink:href="#Degradado_sin_nombre_2"/>
    <linearGradient id="Degradado_sin_nombre_214" data-name="Degradado sin nombre 2" x1="49" y1="-7.2" x2="49" y2="102.1" xlink:href="#Degradado_sin_nombre_2"/>
    <linearGradient id="Degradado_sin_nombre_215" data-name="Degradado sin nombre 2" x1="27" y1="-7.2" x2="27" y2="102.1" xlink:href="#Degradado_sin_nombre_2"/>
    <linearGradient id="Degradado_sin_nombre_216" data-name="Degradado sin nombre 2" x1="14.7" y1="-7.2" x2="14.7" y2="102.1" xlink:href="#Degradado_sin_nombre_2"/>
    <linearGradient id="Degradado_sin_nombre_217" data-name="Degradado sin nombre 2" x1="47.8" y1="-7.2" x2="47.8" y2="102.1" xlink:href="#Degradado_sin_nombre_2"/>
    <linearGradient id="Degradado_sin_nombre_218" data-name="Degradado sin nombre 2" x1="13.6" y1="-7.2" x2="13.6" y2="102.1" xlink:href="#Degradado_sin_nombre_2"/>
    <linearGradient id="Degradado_sin_nombre_219" data-name="Degradado sin nombre 2" x1="13.6" y1="-7.2" x2="13.6" y2="102.1" xlink:href="#Degradado_sin_nombre_2"/>
    <linearGradient id="Degradado_sin_nombre_220" data-name="Degradado sin nombre 2" x1="14.7" y1="-7.2" x2="14.7" y2="102.1" xlink:href="#Degradado_sin_nombre_2"/>
    <linearGradient id="Degradado_sin_nombre_221" data-name="Degradado sin nombre 2" x1="21.6" y1="-7.2" x2="21.6" y2="102.1" xlink:href="#Degradado_sin_nombre_2"/>
    <linearGradient id="Degradado_sin_nombre_222" data-name="Degradado sin nombre 2" x1="31.3" y1="-22.4" x2="31.3" y2="63.7" xlink:href="#Degradado_sin_nombre_2"/>
    <linearGradient id="Degradado_sin_nombre_223" data-name="Degradado sin nombre 2" x1="31.3" y1="10.9" x2="31.3" y2="121" gradientTransform="translate(54.4 -6.4) rotate(76.6)" xlink:href="#Degradado_sin_nombre_2"/>
    <linearGradient id="Degradado_sin_nombre_7" data-name="Degradado sin nombre 7" x1=".4" y1="0" x2="28.1" y2="27.8" gradientTransform="translate(8 -6.4) rotate(13.4)" gradientUnits="userSpaceOnUse">
      <stop offset="0" stop-color="#fff"/>
      <stop offset="1" stop-color="#fff" stop-opacity="0"/>
    </linearGradient>
    <linearGradient id="Degradado_sin_nombre_224" data-name="Degradado sin nombre 2" x1="31.2" y1="-9.5" x2="31.2" y2="54.2" xlink:href="#Degradado_sin_nombre_2"/>
  </defs>
  <g style="filter: url(#drop-shadow-1);">
    <g>
      <circle cx="31.3" cy="31.3" r="31.3" style="fill: url(#Degradado_sin_nombre_2);"/>
      <circle cx="31.3" cy="31.3" r="29" style="fill: url(#Degradado_sin_nombre_21);"/>
      <g>
        <path d="M32.5,23.6l6.7-18.9c-2.3-.7-4.7-1.1-7.2-1.1l.5,20.1Z" style="fill: url(#Degradado_sin_nombre_22);"/>
        <path d="M34.8,24.4l12.2-15.9c-2-1.4-4.1-2.5-6.5-3.3l-5.7,19.2Z" style="fill: url(#Degradado_sin_nombre_23);"/>
        <path d="M27.7,24.4l-5.7-19.2c-2.3.8-4.5,1.9-6.5,3.3l12.2,15.9Z" style="fill: url(#Degradado_sin_nombre_24);"/>
        <path d="M57.9,23.4l-18.9,6.7,20.1.5c0-2.5-.5-4.9-1.1-7.2Z" style="fill: url(#Degradado_sin_nombre_25);"/>
        <path d="M30.5,3.5c-2.5,0-4.9.5-7.2,1.1l6.7,18.9.5-20.1Z" style="fill: url(#Degradado_sin_nombre_26);"/>
        <path d="M25.8,25.8L14.4,9.3c-1.9,1.5-3.6,3.2-5.1,5.1l16.5,11.4Z" style="fill: url(#Degradado_sin_nombre_27);"/>
        <path d="M9.3,48.1c1.5,1.9,3.2,3.6,5.1,5.1l11.4-16.5-16.5,11.4Z" style="fill: url(#Degradado_sin_nombre_28);"/>
        <path d="M36.7,36.7l11.4,16.5c1.9-1.5,3.6-3.2,5.1-5.1l-16.5-11.4Z" style="fill: url(#Degradado_sin_nombre_29);"/>
        <path d="M53.3,14.4c-1.5-1.9-3.2-3.6-5.1-5.1l-11.4,16.5,16.5-11.4Z" style="fill: url(#Degradado_sin_nombre_210);"/>
        <path d="M38.2,27.7l19.2-5.7c-.8-2.3-1.9-4.5-3.3-6.5l-15.9,12.2Z" style="fill: url(#Degradado_sin_nombre_211);"/>
        <path d="M32.5,38.9l-.5,20.1c2.5,0,4.9-.5,7.2-1.1l-6.7-18.9Z" style="fill: url(#Degradado_sin_nombre_212);"/>
        <path d="M34.8,38.2l5.7,19.2c2.3-.8,4.5-1.9,6.5-3.3l-12.2-15.9Z" style="fill: url(#Degradado_sin_nombre_213);"/>
        <path d="M38.9,32.5l18.9,6.7c.7-2.3,1.1-4.7,1.1-7.2l-20.1.5Z" style="fill: url(#Degradado_sin_nombre_214);"/>
        <path d="M30,38.9l-6.7,18.9c2.3.7,4.7,1.1,7.2,1.1l-.5-20.1Z" style="fill: url(#Degradado_sin_nombre_215);"/>
        <path d="M24.4,27.7l-15.9-12.2c-1.4,2-2.5,4.1-3.3,6.5l19.2,5.7Z" style="fill: url(#Degradado_sin_nombre_216);"/>
        <path d="M38.2,34.8l15.9,12.2c1.4-2,2.5-4.1,3.3-6.5l-19.2-5.7Z" style="fill: url(#Degradado_sin_nombre_217);"/>
        <path d="M23.6,30l-18.9-6.7c-.7,2.3-1.1,4.7-1.1,7.2l20.1-.5Z" style="fill: url(#Degradado_sin_nombre_218);"/>
        <path d="M23.6,32.5l-20.1-.5c0,2.5.5,4.9,1.1,7.2l18.9-6.7Z" style="fill: url(#Degradado_sin_nombre_219);"/>
        <path d="M24.4,34.8l-19.2,5.7c.8,2.3,1.9,4.5,3.3,6.5l15.9-12.2Z" style="fill: url(#Degradado_sin_nombre_220);"/>
        <path d="M27.7,38.2l-12.2,15.9c2,1.4,4.1,2.5,6.5,3.3l5.7-19.2Z" style="fill: url(#Degradado_sin_nombre_221);"/>
      </g>
      <circle cx="31.3" cy="31.3" r="19.7" style="fill: url(#Degradado_sin_nombre_222);"/>
      <circle cx="31.3" cy="31.3" r="17.6" transform="translate(-6.4 54.4) rotate(-76.6)" style="fill: url(#Degradado_sin_nombre_223);"/>
    </g>
    <circle cx="31.3" cy="31" r="24.7" transform="translate(-6.3 8.1) rotate(-13.4)" style="fill: url(#Degradado_sin_nombre_7);"/>
  </g>
  <g>
    <text transform="translate(21.7 42)" style="font-family: Rubik-Medium, Rubik; font-size: 29.8px; font-weight: 500;"><tspan x="0" y="0">$</tspan></text>
    <path d="M30.3,45c-.2,0-.4,0-.5-.2s-.2-.3-.2-.5v-2.1c-1.5-.1-2.7-.5-3.7-1.1-1-.6-1.8-1.2-2.3-2.1-.5-.8-.8-1.6-.8-2.5,0-.2,0-.3.2-.4s.3-.2.5-.2h2.7c.2,0,.4,0,.6.2s.2.2.3.4c.1.4.4.7.7,1.1.3.4.8.7,1.4.9s1.3.4,2.2.4c1.4,0,2.5-.2,3.2-.7s1-1.1,1-1.9-.2-1-.6-1.4c-.4-.3-.9-.7-1.7-1-.8-.3-1.8-.6-3.1-.9-1.5-.4-2.7-.8-3.7-1.3-1-.5-1.8-1.1-2.3-1.9-.5-.8-.8-1.8-.8-2.9s.6-2.8,1.7-3.9c1.1-1.1,2.7-1.7,4.6-2v-2.1c0-.2,0-.4.2-.5s.3-.2.5-.2h1.8c.2,0,.4,0,.5.2s.2.3.2.5v2.1c1.4.2,2.5.6,3.4,1.2s1.6,1.3,2.1,2c.5.8.7,1.5.7,2.2,0,.2,0,.3-.2.4s-.3.2-.5.2h-2.8c-.2,0-.3,0-.5-.1-.2,0-.3-.2-.4-.4,0-.6-.5-1.1-1.1-1.6s-1.5-.7-2.6-.7-1.9.2-2.6.6c-.6.4-1,1-1,1.8s.2,1,.5,1.4c.3.4.8.7,1.6,1,.7.3,1.7.6,2.9.9,1.7.4,3.1.8,4.1,1.3,1.1.5,1.8,1.1,2.4,1.9.5.8.8,1.7.8,2.9s-.3,2.2-.8,3c-.6.9-1.4,1.6-2.4,2.1-1,.5-2.2.9-3.6,1v2.1c0,.2,0,.4-.2.5s-.3.2-.5.2h-1.8Z" style="fill: url(#Degradado_sin_nombre_224);"/>
  </g>
  <metadata>
    <sfw xmlns="http://ns.adobe.com/SaveForWeb/1.0/">
      <slices/>
      <sliceSourceBounds x="10.32" y="-97.44" width="86.88" height="86.88" bottomLeftOrigin="true"/>
    </sfw>
  </metadata>
</svg>